<svg xmlns="http://www.w3.org/2000/svg" viewBox="0 0 24 24"><defs><style>.cls-1{fill:#3fa9f5;}</style></defs><title>Computer, laptop, macbook, notebook</title><g id="_01" data-name="01"><rect class="cls-1" x="4" y="19.39" width="16" height="1.61" id="id_101"></rect><rect class="cls-1" x="4" y="5" width="9" height="12" id="id_102"></rect><path d="M20,18H4a1,1,0,0,1-1-1V5A1,1,0,0,1,4,4H20a1,1,0,0,1,1,1V17A1,1,0,0,1,20,18ZM5,16H19V6H5Z" id="id_103" style="fill: rgb(255, 255, 255);"></path><path d="M18,22H6a4,4,0,0,1-4-4V17a1,1,0,0,1,1-1H21a1,1,0,0,1,1,1v1A4,4,0,0,1,18,22ZM4,18a2,2,0,0,0,2,2H18a2,2,0,0,0,2-2Z" id="id_104" style="fill: rgb(255, 255, 255);"></path><path d="M13,19H11a1,1,0,0,1,0-2h2a1,1,0,0,1,0,2Z" id="id_105" style="fill: rgb(255, 255, 255);"></path></g></svg>