<svg xmlns="http://www.w3.org/2000/svg" viewBox="0 0 24 24"><defs><style>.cls-1{fill:#3fa9f5;}</style></defs><title>Measure, speed, stopwatch, time, timepiece, timer</title><g id="_01" data-name="01"><circle class="cls-1" cx="11" cy="14" r="6" id="id_101"></circle><path d="M12,22A8,8,0,1,1,18.86,9.89a1,1,0,1,1-1.71,1A6,6,0,1,0,18,14a1,1,0,0,1,2,0A8,8,0,0,1,12,22Z" id="id_102" style="fill: rgb(255, 255, 255);"></path><path d="M14,17a1,1,0,0,1-.71-.29l-2-2A1,1,0,0,1,11,14V10a1,1,0,0,1,2,0v3.59l1.71,1.7a1,1,0,0,1,0,1.42A1,1,0,0,1,14,17Z" id="id_103" style="fill: rgb(255, 255, 255);"></path><path d="M13,5H11a1,1,0,0,1,0-2h2a1,1,0,0,1,0,2Z" id="id_104" style="fill: rgb(255, 255, 255);"></path></g></svg>