<?xml version="1.0" encoding="utf-8" standalone="no"?>
<!DOCTYPE svg PUBLIC "-//W3C//DTD SVG 1.1//RU" "http://www.w3.org/Graphics/SVG/1.1/DTD/svg11.dtd">
<svg version="1.1" xmlns="http://www.w3.org/2000/svg" xmlns:xlink="http://www.w3.org/1999/xlink" width="46" height="46" viewBox="0 0 46 46" fill="none">
    <path d="M24.3498 19.6055H21.6499V30.54H24.3498V19.6055Z" fill="#C79448"></path>
	<path d="M29.6157 17.8769V15.177C31.6184 15.177 33.1804 14.5518 34.3908 13.2657C36.6329 10.8832 37.0645 6.89886 37.1312 4.87136H31.6872V2.17139H39.7466L39.8236 3.43944C39.8421 3.74607 40.2351 10.9951 36.357 15.1159C34.6328 16.9479 32.3648 17.8769 29.6157 17.8769Z" fill="#744F17"></path>
	<path d="M16.3844 17.8769C13.6354 17.8769 11.3673 16.9479 9.64319 15.116C5.76501 10.9951 6.15798 3.74607 6.17658 3.43944L6.25358 2.17139H14.3129V4.87127H8.87134C8.94133 6.90344 9.37779 10.9 11.6147 13.2713C12.8244 14.5535 14.3845 15.1769 16.3843 15.1769V17.8769H16.3844Z" fill="#B68030"></path>
	<path d="M24.3495 19.604H22.9995V30.5386H24.3495V19.604Z" fill="#B68030"></path>
	<path d="M30.4922 34.5713V37.9623H15.5078V34.5713C15.5078 31.901 17.6803 29.7285 20.3514 29.7285H25.6486C28.3197 29.7286 30.4922 31.9011 30.4922 34.5713Z" fill="#976924"></path>
	<path d="M33.0497 0V10.9832C33.0497 16.5252 28.5418 21.0331 22.9997 21.0331C17.4576 21.0331 12.9497 16.5252 12.9497 10.9832V0H33.0497Z" fill="#976924"></path>
	<path d="M30.4922 34.5713V37.9623H23V29.7285H25.6486C28.3197 29.7286 30.4922 31.9011 30.4922 34.5713Z" fill="#8C5A0D"></path><path d="M33.05 0V10.9832C33.05 16.5252 28.5421 21.0331 23 21.0331V0H33.05Z" fill="#8C5A0D"></path>
	<path d="M34.0639 35.2632H11.9355V45.9998H34.0639V35.2632Z" fill="#9F7953"></path>
	<path d="M34.0642 35.2632H23V45.9998H34.0642V35.2632Z" fill="#715539"></path>
</svg>
